<?xml version="1.0" encoding="utf-8"?>
<!-- Generator: Adobe Illustrator 23.0.1, SVG Export Plug-In . SVG Version: 6.00 Build 0)  -->
<svg version="1.1" id="Layer_1" xmlns="http://www.w3.org/2000/svg" xmlns:xlink="http://www.w3.org/1999/xlink" x="0px" y="0px"
	 viewBox="0 0 1400 1400" style="enable-background:new 0 0 1400 1400;" xml:space="preserve">
<style type="text/css">
	.st0{fill:#F7F1E3;}
	.st1{fill:#F9E8C7;}
	.st2{fill:#FFFFFF;}
	.st3{fill:#524AB7;}
	.st4{fill:#6E6BF9;}
	.st5{fill:#5959EA;}
	.st6{fill:#E2F4F4;}
	.st7{fill:#F3AC1E;}
	.st8{fill:#F4CC21;}
	.st9{fill:#DD3E17;}
	.st10{fill:#91E2DC;}
	.st11{fill:#53D4F1;}
	.st12{fill:#FEFEFE;}
	.st13{fill:#FD89CA;}
	.st14{fill:#6BCBE1;}
	.st15{fill:#F4D49D;}
	.st16{fill:none;stroke:#524AB7;stroke-width:7;stroke-linecap:round;stroke-miterlimit:10;}
	.st17{fill:none;stroke:#524AB7;stroke-width:7;stroke-linecap:round;stroke-linejoin:round;stroke-miterlimit:10;}
</style>
<rect x="-0.3" class="st0" width="1400" height="1400"/>
<g>
	<g>
		<path class="st1" d="M55.16,1002.16h1289.58c0,0,6.42-43.51-81.27-49.49c-87.68-5.97-28.38-240.52-154.21-335.42
			c-125.83-94.9-112.02-434.04-368.13-391.27S525.04,449.57,348.21,492.83c-176.83,43.26-208.11,126.89-149,239.06
			C258.32,844.05,61.57,858.73,55.16,1002.16z"/>
		<path class="st2" d="M1005.51,756.15h200.98c0,0-5.28-38.31-39.55-36.84c0,0-9.97-51.46-60.93-49.94s-56.01,55.45-56.01,55.45
			S1009.92,721.95,1005.51,756.15z"/>
		<g>
			<g>
				<g>
					<path class="st3" d="M980.52,916.93H409.59c-15.94,0-28.86-12.92-28.86-28.86v-370.5c0-15.94,12.92-28.86,28.86-28.86h570.93
						c15.94,0,28.86,12.92,28.86,28.86v370.5C1009.38,904.01,996.46,916.93,980.52,916.93z"/>
				</g>
			</g>
			<g>
				<g>
					<path class="st4" d="M380.73,866.97v31.44c0,10.23,8.29,18.52,18.52,18.52l591.61,0c10.23,0,18.52-8.29,18.52-18.52v-31.44
						H380.73z"/>
				</g>
			</g>
			<g>
				<g>
					<path class="st5" d="M791.68,988.43L791.68,988.43c-22.06,0-39.94-17.88-39.94-39.94v-31.56H638.37v31.56
						c0,22.06-17.88,39.94-39.94,39.94l0,0H791.68z"/>
				</g>
			</g>
			<g>
				<g>
					<rect x="409.94" y="522.37" class="st6" width="570.24" height="317"/>
				</g>
			</g>
			<g>
				<g>
					<path class="st2" d="M409.94,630.91c184.91-1.89,253.37-74.41,275.4-108.55h-275.4V630.91z"/>
				</g>
			</g>
			<g>
				<g>
					<rect x="597.8" y="988.56" class="st4" width="193.46" height="13.6"/>
				</g>
			</g>
			<g>
				<g>
					<path class="st7" d="M1071.04,630.37H894.48c-5.24,0-9.52-4.28-9.52-9.52V402.6c0-5.24,4.29-9.52,9.52-9.52h176.56
						c5.24,0,9.52,4.29,9.52,9.52v218.24C1080.56,626.08,1076.28,630.37,1071.04,630.37z"/>
				</g>
			</g>
			<g>
				<g>
					<g>
						<g>
							<rect x="912.22" y="423.28" class="st2" width="141.09" height="4.53"/>
						</g>
					</g>
					<g>
						<g>
							<rect x="912.22" y="435.3" class="st8" width="109.02" height="4.53"/>
						</g>
					</g>
					<g>
						<g>
							<rect x="912.22" y="448.13" class="st8" width="129.87" height="4.53"/>
						</g>
					</g>
					<g>
						<g>
							<rect x="912.22" y="460.96" class="st8" width="109.02" height="4.53"/>
						</g>
					</g>
				</g>
				<g>
					<g>
						<g>
							<rect x="912.22" y="490.62" class="st2" width="141.09" height="4.53"/>
						</g>
					</g>
					<g>
						<g>
							<rect x="912.22" y="502.64" class="st8" width="109.02" height="4.53"/>
						</g>
					</g>
					<g>
						<g>
							<rect x="912.22" y="515.47" class="st8" width="129.87" height="4.53"/>
						</g>
					</g>
					<g>
						<g>
							<rect x="912.22" y="528.3" class="st8" width="109.02" height="4.53"/>
						</g>
					</g>
				</g>
				<g>
					<g>
						<g>
							<rect x="912.22" y="557.96" class="st2" width="141.09" height="4.53"/>
						</g>
					</g>
					<g>
						<g>
							<rect x="912.22" y="569.98" class="st8" width="109.02" height="4.53"/>
						</g>
					</g>
					<g>
						<g>
							<rect x="912.22" y="582.81" class="st8" width="129.87" height="4.53"/>
						</g>
					</g>
					<g>
						<g>
							<rect x="912.22" y="595.63" class="st8" width="109.02" height="4.53"/>
						</g>
					</g>
				</g>
			</g>
			<g>
				<g>
					<path class="st9" d="M853.84,461.09H672.75c-5.48,0-9.96-4.48-9.96-9.96v-78.31c0-5.48,4.48-9.96,9.96-9.96h181.09
						c5.48,0,9.96,4.48,9.96,9.96v78.31C863.8,456.61,859.32,461.09,853.84,461.09z"/>
				</g>
			</g>
			<g>
				<g>
					<g>
						<path class="st2" d="M746.51,435.65l-31.74-21.16c-0.83-0.55-1.33-1.47-1.35-2.47c-0.02-0.99,0.46-1.93,1.26-2.51l31.74-22.67
							l3.51,4.92l-28.17,20.13l28.09,18.73L746.51,435.65z"/>
					</g>
				</g>
				<g>
					<g>
						<path class="st2" d="M780.09,435.65l-3.35-5.03l28.09-18.73l-28.17-20.13l3.51-4.92l31.74,22.67
							c0.81,0.58,1.28,1.52,1.27,2.51c-0.02,0.99-0.52,1.92-1.35,2.47L780.09,435.65z"/>
					</g>
				</g>
				<g>
					<g>
						
							<rect x="730.01" y="407.63" transform="matrix(0.1961 -0.9806 0.9806 0.1961 210.5217 1078.0905)" class="st2" width="65.51" height="6.04"/>
					</g>
				</g>
			</g>
			<g>
				<g>
					<g>
						<path class="st10" d="M531.57,654.91h-86.79c-3.97,0-7.19-3.22-7.19-7.19v-72.12c0-3.97,3.22-7.19,7.19-7.19h86.79
							c3.97,0,7.19,3.22,7.19,7.19v72.12C538.77,651.69,535.55,654.91,531.57,654.91z"/>
					</g>
				</g>
				<g>
					<g>
						<path class="st7" d="M656.21,654.91h-86.79c-3.97,0-7.19-3.22-7.19-7.19v-72.12c0-3.97,3.22-7.19,7.19-7.19h86.79
							c3.97,0,7.19,3.22,7.19,7.19v72.12C663.4,651.69,660.18,654.91,656.21,654.91z"/>
					</g>
				</g>
				<g>
					<g>
						<path class="st3" d="M780.92,656.42h-6.13c-0.84,0-1.51-0.68-1.51-1.51c0-0.83,0.68-1.51,1.51-1.51h6.05
							c0.84,0,1.55,0.68,1.55,1.51C782.39,655.74,781.76,656.42,780.92,656.42z M768.74,656.42h-6.05c-0.84,0-1.51-0.68-1.51-1.51
							c0-0.83,0.68-1.51,1.51-1.51h6.05c0.84,0,1.51,0.68,1.51,1.51C770.25,655.74,769.57,656.42,768.74,656.42z M756.64,656.42
							h-6.05c-0.84,0-1.51-0.68-1.51-1.51c0-0.83,0.68-1.51,1.51-1.51h6.05c0.84,0,1.51,0.68,1.51,1.51
							C758.15,655.74,757.48,656.42,756.64,656.42z M744.54,656.42h-6.05c-0.84,0-1.51-0.68-1.51-1.51c0-0.83,0.68-1.51,1.51-1.51
							h6.05c0.84,0,1.51,0.68,1.51,1.51C746.05,655.74,745.38,656.42,744.54,656.42z M732.44,656.42h-6.05
							c-0.83,0-1.51-0.68-1.51-1.51c0-0.83,0.68-1.51,1.51-1.51h6.05c0.84,0,1.51,0.68,1.51,1.51
							C733.96,655.74,733.28,656.42,732.44,656.42z M720.35,656.42h-6.05c-0.83,0-1.51-0.68-1.51-1.51c0-0.83,0.68-1.51,1.51-1.51
							h6.05c0.83,0,1.51,0.68,1.51,1.51C721.86,655.74,721.18,656.42,720.35,656.42z M708.25,656.42h-6.05
							c-0.83,0-1.51-0.68-1.51-1.51c0-0.83,0.68-1.51,1.51-1.51h6.05c0.83,0,1.51,0.68,1.51,1.51
							C709.76,655.74,709.08,656.42,708.25,656.42z M696.15,656.42h-2.1c-1.61,0-3.18-0.44-4.54-1.28c-0.71-0.44-0.93-1.37-0.5-2.08
							c0.44-0.71,1.37-0.93,2.08-0.5c0.89,0.55,1.92,0.83,2.97,0.83h2.1c0.83,0,1.51,0.68,1.51,1.51
							C697.66,655.74,696.98,656.42,696.15,656.42z M786.25,653.96c-0.35,0-0.71-0.12-0.99-0.37c-0.63-0.55-0.69-1.5-0.14-2.13
							c0.91-1.04,1.41-2.36,1.41-3.74v-0.88c0-0.83,0.68-1.51,1.51-1.51s1.51,0.68,1.51,1.51v0.88c0,2.11-0.76,4.14-2.15,5.73
							C787.09,653.79,786.67,653.96,786.25,653.96z M686.97,650.52c-0.72,0-1.35-0.51-1.49-1.24c-0.09-0.51-0.14-1.04-0.14-1.56
							v-4.75c0-0.83,0.68-1.51,1.51-1.51s1.51,0.68,1.51,1.51v4.75c0,0.34,0.03,0.69,0.09,1.03c0.15,0.82-0.4,1.61-1.22,1.76
							C687.15,650.52,687.06,650.52,686.97,650.52z M788.03,642.3c-0.84,0-1.51-0.68-1.51-1.51v-6.05c0-0.83,0.68-1.51,1.51-1.51
							s1.51,0.68,1.51,1.51v6.05C789.54,641.62,788.87,642.3,788.03,642.3z M686.86,638.43c-0.83,0-1.51-0.68-1.51-1.51v-6.05
							c0-0.83,0.68-1.51,1.51-1.51s1.51,0.68,1.51,1.51v6.05C688.37,637.76,687.69,638.43,686.86,638.43z M788.03,630.2
							c-0.84,0-1.51-0.68-1.51-1.51v-6.05c0-0.83,0.68-1.51,1.51-1.51s1.51,0.68,1.51,1.51v6.05
							C789.54,629.53,788.87,630.2,788.03,630.2z M686.86,626.33c-0.83,0-1.51-0.68-1.51-1.51v-6.05c0-0.83,0.68-1.51,1.51-1.51
							s1.51,0.68,1.51,1.51v6.05C688.37,625.66,687.69,626.33,686.86,626.33z M788.03,618.1c-0.84,0-1.51-0.68-1.51-1.51v-6.05
							c0-0.83,0.68-1.51,1.51-1.51s1.51,0.68,1.51,1.51v6.05C789.54,617.43,788.87,618.1,788.03,618.1z M686.86,614.24
							c-0.83,0-1.51-0.68-1.51-1.51v-6.05c0-0.83,0.68-1.51,1.51-1.51s1.51,0.68,1.51,1.51v6.05
							C688.37,613.56,687.69,614.24,686.86,614.24z M788.03,606.01c-0.84,0-1.51-0.68-1.51-1.51v-6.05c0-0.83,0.68-1.51,1.51-1.51
							s1.51,0.68,1.51,1.51v6.05C789.54,605.33,788.87,606.01,788.03,606.01z M686.86,602.14c-0.83,0-1.51-0.68-1.51-1.51v-6.05
							c0-0.83,0.68-1.51,1.51-1.51s1.51,0.68,1.51,1.51v6.05C688.37,601.46,687.69,602.14,686.86,602.14z M788.03,593.91
							c-0.84,0-1.51-0.68-1.51-1.51v-6.05c0-0.83,0.68-1.51,1.51-1.51s1.51,0.68,1.51,1.51v6.05
							C789.54,593.23,788.87,593.91,788.03,593.91z M686.86,590.04c-0.83,0-1.51-0.68-1.51-1.51v-6.05c0-0.83,0.68-1.51,1.51-1.51
							s1.51,0.68,1.51,1.51v6.05C688.37,589.36,687.69,590.04,686.86,590.04z M788.03,581.81c-0.84,0-1.51-0.68-1.51-1.51v-4.7
							c0-0.36-0.03-0.71-0.1-1.06c-0.15-0.82,0.39-1.61,1.21-1.76c0.83-0.16,1.61,0.39,1.76,1.21c0.1,0.53,0.15,1.08,0.15,1.62v4.7
							C789.54,581.13,788.87,581.81,788.03,581.81z M686.86,577.94c-0.83,0-1.51-0.68-1.51-1.51v-0.84c0-2.13,0.78-4.18,2.19-5.77
							c0.55-0.63,1.51-0.68,2.13-0.13c0.63,0.55,0.68,1.51,0.13,2.13c-0.92,1.04-1.43,2.38-1.43,3.77v0.84
							C688.37,577.26,687.69,577.94,686.86,577.94z M784.56,570.95c-0.27,0-0.54-0.07-0.78-0.22c-0.88-0.53-1.9-0.82-2.94-0.82
							h-2.14c-0.84,0-1.51-0.68-1.51-1.51c0-0.83,0.68-1.51,1.51-1.51h2.14c1.59,0,3.15,0.43,4.5,1.25
							c0.71,0.43,0.94,1.36,0.51,2.08C785.56,570.69,785.07,570.95,784.56,570.95z M772.65,569.91h-6.05
							c-0.84,0-1.51-0.68-1.51-1.51c0-0.83,0.68-1.51,1.51-1.51h6.05c0.84,0,1.51,0.68,1.51,1.51
							C774.16,569.23,773.48,569.91,772.65,569.91z M760.55,569.91h-6.05c-0.84,0-1.51-0.68-1.51-1.51c0-0.83,0.68-1.51,1.51-1.51
							h6.05c0.84,0,1.51,0.68,1.51,1.51C762.06,569.23,761.39,569.91,760.55,569.91z M748.45,569.91h-6.05
							c-0.84,0-1.51-0.68-1.51-1.51c0-0.83,0.68-1.51,1.51-1.51h6.05c0.84,0,1.51,0.68,1.51,1.51
							C749.96,569.23,749.29,569.91,748.45,569.91z M736.36,569.91h-6.05c-0.83,0-1.51-0.68-1.51-1.51c0-0.83,0.68-1.51,1.51-1.51
							h6.05c0.84,0,1.51,0.68,1.51,1.51C737.87,569.23,737.19,569.91,736.36,569.91z M724.26,569.91h-6.05
							c-0.83,0-1.51-0.68-1.51-1.51c0-0.83,0.68-1.51,1.51-1.51h6.05c0.83,0,1.51,0.68,1.51,1.51
							C725.77,569.23,725.09,569.91,724.26,569.91z M712.16,569.91h-6.05c-0.83,0-1.51-0.68-1.51-1.51c0-0.83,0.68-1.51,1.51-1.51
							h6.05c0.83,0,1.51,0.68,1.51,1.51C713.67,569.23,712.99,569.91,712.16,569.91z M700.06,569.91h-6.01
							c-0.83,0-1.53-0.68-1.53-1.51c0-0.83,0.66-1.51,1.49-1.51v1.51l0.01-1.51l6.04,0c0.83,0,1.51,0.68,1.51,1.51
							C701.57,569.23,700.89,569.91,700.06,569.91z"/>
					</g>
				</g>
				<g>
					<g>
						<g>
							<rect x="438.33" y="680.48" class="st2" width="76.25" height="6.05"/>
						</g>
					</g>
				</g>
				<g>
					<g>
						<g>
							<rect x="438.33" y="696.61" class="st10" width="174.48" height="6.05"/>
						</g>
					</g>
				</g>
				<g>
					<g>
						<g>
							<rect x="438.33" y="712.74" class="st10" width="199.41" height="6.05"/>
						</g>
					</g>
				</g>
				<g>
					<g>
						<g>
							<rect x="438.33" y="728.87" class="st10" width="147.36" height="6.05"/>
						</g>
					</g>
				</g>
				<g>
					<g>
						<g>
							<rect x="438.33" y="762.59" class="st2" width="76.25" height="6.05"/>
						</g>
					</g>
				</g>
				<g>
					<g>
						<g>
							<rect x="438.33" y="778.72" class="st10" width="174.48" height="6.04"/>
						</g>
					</g>
				</g>
				<g>
					<g>
						<g>
							<rect x="438.33" y="794.85" class="st10" width="199.41" height="6.05"/>
						</g>
					</g>
				</g>
				<g>
					<g>
						<g>
							<rect x="438.33" y="810.98" class="st10" width="147.36" height="6.05"/>
						</g>
					</g>
				</g>
				<g>
					<g>
						<rect x="437.59" y="538.17" class="st10" width="39.3" height="6.05"/>
					</g>
				</g>
				<g>
					<g>
						<rect x="623.49" y="538.17" class="st10" width="39.3" height="6.05"/>
					</g>
				</g>
				<g>
					<g>
						<rect x="499.56" y="538.17" class="st10" width="98.24" height="6.05"/>
					</g>
				</g>
			</g>
			<g>
				<g>
					<path class="st2" d="M980.17,839.36V668.63c-42.25,6.98-153.77,37.78-202.25,170.73H980.17z"/>
				</g>
			</g>
		</g>
		<g>
			<g>
				<g>
					
						<ellipse transform="matrix(0.7071 -0.7071 0.7071 0.7071 -273.4608 846.8947)" class="st11" cx="885.56" cy="753.54" rx="68.77" ry="68.77"/>
				</g>
			</g>
			<g>
				<g>
					<path class="st2" d="M914.86,760.8l-40.16,23.18c-5.59,3.23-12.57-0.81-12.57-7.26v-46.37c0-6.45,6.98-10.48,12.57-7.26
						l40.16,23.18C920.45,749.51,920.45,757.58,914.86,760.8z"/>
				</g>
			</g>
		</g>
		<g>
			<g>
				<path class="st12" d="M326.81,662.11H186.25c-9.98,0-18.14-8.16-18.14-18.14V492.83c0-9.98,8.16-18.14,18.14-18.14h140.56
					c9.98,0,18.14,8.16,18.14,18.14v151.14C344.95,653.94,336.79,662.11,326.81,662.11z"/>
			</g>
		</g>
		<g>
			<g>
				<g>
					<rect x="195.95" y="568.4" class="st7" width="14.09" height="67.66"/>
				</g>
				<g>
					<rect x="222.72" y="542.71" class="st4" width="14.09" height="93.35"/>
				</g>
				<g>
					<rect x="249.49" y="558.38" class="st13" width="14.09" height="77.68"/>
				</g>
				<g>
					<rect x="276.26" y="530.32" class="st9" width="14.09" height="105.74"/>
				</g>
				<g>
					<g>
						<rect x="303.03" y="500.74" class="st14" width="14.09" height="135.32"/>
					</g>
				</g>
			</g>
		</g>
		<path class="st2" d="M310.07,449.03h238.61c0,0-6.27-45.48-46.96-43.74c0,0-11.83-61.09-72.34-59.3
			c-60.51,1.8-66.5,65.83-66.5,65.83S315.31,408.44,310.07,449.03z"/>
		<path class="st2" d="M261.43,950.87h238.61c0,0-6.27-45.48-46.96-43.74c0,0-11.83-61.09-72.34-59.3
			c-60.51,1.8-66.5,65.83-66.5,65.83S266.67,910.28,261.43,950.87z"/>
		<path class="st15" d="M55.16,1002.16c0,0,9.04,38.64,167.56,47.19s302.64,126.18,462.62,128.32
			c159.98,2.14,196.33-75,395.23-87.76s264.18-87.76,264.18-87.76H55.16z"/>
		<path class="st2" d="M345.82,770.72c-30.41-10.48-35.46,24.53-35.46,24.53s-7.59-32.76-35.46-24.53
			c-30.85,9.11-12.24,68.74,35.46,82.47C358.05,839.46,375.4,780.92,345.82,770.72z"/>
		<g>
			<path class="st16" d="M1174.64,780.21c-5.69,49.2-47.52,87.41-98.26,87.41"/>
			<path class="st16" d="M1076.38,669.74c50.74,0,92.57,38.19,98.26,87.41"/>
			
				<rect x="1053.31" y="658.2" transform="matrix(-1.836970e-16 1 -1 -1.836970e-16 1734.5778 -395.1053)" class="st17" width="23.07" height="23.07"/>
			
				<rect x="1163.78" y="757.14" transform="matrix(-1.836970e-16 1 -1 -1.836970e-16 1943.9867 -406.64)" class="st17" width="23.07" height="23.07"/>
			
				<rect x="1053.31" y="856.25" transform="matrix(-1.836970e-16 1 -1 -1.836970e-16 1932.6295 -197.0536)" class="st17" width="23.07" height="23.07"/>
			<line class="st17" x1="1175.31" y1="757.14" x2="1175.31" y2="639.37"/>
			<path class="st3" d="M1175.31,645.74c-3.51,0-6.36-2.85-6.36-6.36c0-3.51,2.85-6.36,6.36-6.36c3.51,0,6.36,2.85,6.36,6.36
				C1181.68,642.89,1178.83,645.74,1175.31,645.74z"/>
			<line class="st17" x1="1175.31" y1="780.21" x2="1175.31" y2="892.97"/>
			<path class="st3" d="M1175.31,886.61c-3.51,0-6.36,2.85-6.36,6.36s2.85,6.36,6.36,6.36c3.51,0,6.36-2.85,6.36-6.36
				S1178.83,886.61,1175.31,886.61z"/>
		</g>
	</g>
	<g>
		<path class="st3" d="M236,748.34v210.71c0,1.75-1.42,3.16-3.16,3.16H212.6c-1.75,0-3.16-1.42-3.16-3.16V748.34H236z"/>
		<polygon class="st7" points="209.44,748.34 222.72,716.52 236,748.34 		"/>
		<polygon class="st3" points="225.14,722.33 222.72,716.52 220.29,722.33 		"/>
	</g>
</g>
</svg>
